<?xml version="1.0" encoding="UTF-8" ?>
<!DOCTYPE svg PUBLIC "-//W3C//DTD SVG 1.1//EN" "http://www.w3.org/Graphics/SVG/1.1/DTD/svg11.dtd">
<svg width="1000pt" height="1000pt" viewBox="0 0 1000 1000" version="1.1" xmlns="http://www.w3.org/2000/svg">
<g id="#00a0e9ff">
<path fill="#00a0e9" opacity="1.00" d=" M 469.52 42.93 C 470.61 41.51 472.51 42.13 474.02 41.97 C 492.85 42.08 511.69 41.89 530.52 42.07 C 533.98 44.20 538.60 42.38 542.52 43.07 C 545.56 45.63 550.43 42.37 553.48 44.93 C 556.15 45.03 558.84 44.97 561.52 45.07 C 563.36 46.83 566.22 45.69 568.52 46.07 C 570.30 48.16 573.68 45.85 575.48 47.92 C 577.15 47.99 578.84 48.01 580.53 48.08 C 581.77 49.55 583.86 48.83 585.53 49.11 C 587.35 51.11 590.65 48.88 592.47 50.90 C 593.48 50.97 594.50 51.03 595.52 51.10 C 597.07 52.88 599.93 51.11 601.47 52.90 C 602.48 52.97 603.50 53.03 604.52 53.10 C 606.06 54.88 608.93 53.11 610.47 54.90 C 611.48 54.97 612.50 55.04 613.52 55.11 C 614.84 56.53 617.12 55.48 618.48 56.86 C 618.99 56.93 620.01 57.06 620.53 57.13 C 621.87 58.50 624.12 57.50 625.48 58.86 C 625.99 58.93 627.01 59.07 627.52 59.14 C 628.87 60.50 631.12 59.49 632.47 60.87 C 632.98 60.94 634.01 61.07 634.52 61.14 C 635.42 61.74 636.42 62.12 637.53 62.26 C 638.99 63.35 641.11 62.57 642.47 63.86 C 642.99 63.93 644.01 64.07 644.52 64.14 C 645.42 64.75 646.42 65.13 647.54 65.27 C 648.81 65.77 650.11 66.20 651.38 66.73 C 653.03 67.49 654.76 68.08 656.46 68.72 C 657.51 68.92 658.51 69.25 659.47 69.72 C 660.92 70.02 662.28 70.61 663.61 71.27 C 664.87 71.79 666.17 72.23 667.46 72.73 C 669.20 73.12 670.94 73.69 672.38 74.80 C 674.02 75.48 675.73 76.03 677.39 76.71 C 679.38 77.77 681.60 78.26 683.63 79.25 C 684.12 79.51 685.10 80.02 685.59 80.28 C 687.74 81.71 690.35 82.08 692.63 83.26 C 693.12 83.51 694.10 84.02 694.59 84.28 C 695.88 85.02 697.24 85.66 698.62 86.24 C 699.54 86.74 700.45 87.25 701.37 87.76 C 702.45 88.25 703.53 88.75 704.62 89.24 C 705.53 89.75 706.45 90.25 707.38 90.76 C 708.45 91.24 709.53 91.74 710.61 92.24 C 712.54 93.37 714.58 94.31 716.61 95.26 C 717.54 95.75 718.47 96.23 719.42 96.70 C 720.83 97.52 722.17 98.47 723.57 99.32 C 725.18 100.12 726.81 100.88 728.43 101.68 C 730.09 102.68 731.65 103.85 733.40 104.73 C 735.12 105.63 736.65 106.86 738.40 107.73 C 741.21 109.16 743.54 111.38 746.41 112.72 C 756.27 119.06 766.09 125.49 775.30 132.74 C 780.14 136.58 785.50 139.79 789.81 144.23 C 792.89 145.65 794.57 148.81 797.56 150.35 C 799.63 151.60 800.88 153.80 802.82 155.23 C 806.95 157.60 809.75 161.60 813.24 164.76 C 818.28 167.90 821.91 172.75 826.24 176.74 C 829.40 180.24 833.39 183.05 835.77 187.18 C 838.95 190.98 843.28 193.81 845.76 198.18 C 847.34 200.25 849.75 201.62 850.99 203.99 C 852.20 206.38 854.82 207.63 856.02 210.04 C 857.10 212.22 859.42 213.38 860.65 215.45 C 867.14 224.55 874.36 233.13 880.38 242.57 C 883.65 247.59 887.15 252.48 890.28 257.59 C 891.21 259.65 892.78 261.34 893.72 263.41 C 894.63 265.12 895.87 266.65 896.72 268.41 C 897.50 269.85 898.46 271.17 899.34 272.57 C 899.57 273.07 900.03 274.09 900.26 274.60 C 900.74 275.53 901.22 276.47 901.69 277.43 C 902.51 278.84 903.47 280.17 904.34 281.56 C 904.58 282.07 905.05 283.08 905.28 283.59 C 905.53 284.09 906.02 285.09 906.27 285.59 C 907.01 286.88 907.64 288.24 908.25 289.61 C 909.02 290.89 909.65 292.24 910.25 293.62 C 910.73 294.54 911.23 295.47 911.74 296.40 C 911.98 296.89 912.48 297.89 912.72 298.39 C 913.32 299.75 913.97 301.10 914.74 302.39 C 915.69 304.41 916.60 306.47 917.78 308.38 C 918.71 310.42 919.26 312.60 920.25 314.63 C 920.51 315.12 921.02 316.10 921.28 316.59 C 922.93 318.97 923.01 322.05 924.78 324.38 C 925.73 326.40 926.22 328.61 927.29 330.59 C 927.75 331.52 928.08 332.50 928.28 333.54 C 928.89 335.24 929.50 336.96 930.27 338.62 C 930.78 339.88 931.22 341.18 931.73 342.46 C 931.91 343.51 932.24 344.51 932.72 345.47 C 933.01 346.92 933.59 348.28 934.28 349.60 C 934.73 350.52 935.07 351.50 935.28 352.53 C 935.73 353.47 936.06 354.47 936.27 355.53 C 936.73 356.47 937.06 357.47 937.27 358.53 C 938.26 360.01 937.72 361.98 938.73 363.47 C 938.87 364.57 939.25 365.57 939.86 366.48 C 939.93 366.99 940.07 368.01 940.13 368.52 C 941.48 369.87 940.49 372.12 941.86 373.48 C 941.93 373.99 942.07 375.01 942.14 375.52 C 943.47 376.88 942.51 379.11 943.86 380.48 C 943.93 380.99 944.06 382.01 944.13 382.53 C 945.27 383.55 944.89 385.18 945.17 386.53 C 946.24 387.58 945.90 389.18 946.17 390.53 C 947.24 391.58 946.91 393.17 947.17 394.53 C 948.81 396.14 947.13 398.92 948.90 400.47 C 948.95 401.48 949.02 402.50 949.10 403.52 C 950.51 404.80 949.83 406.86 950.11 408.53 C 952.10 410.36 949.89 413.64 951.89 415.47 C 952.15 417.13 951.46 419.21 952.92 420.48 C 953.22 422.45 952.30 424.92 953.92 426.48 C 954.23 428.45 953.28 430.94 954.93 432.48 C 955.01 434.82 954.97 437.17 955.07 439.52 C 956.84 441.36 955.68 444.23 956.07 446.52 C 958.70 449.88 955.29 455.11 957.93 458.48 C 958.08 462.15 957.91 465.84 958.07 469.52 C 959.48 470.60 958.86 472.49 959.03 473.99 C 958.98 491.65 958.98 509.30 959.03 526.95 C 958.85 528.46 959.49 530.38 958.07 531.48 C 957.91 535.15 958.08 538.84 957.93 542.52 C 955.29 545.88 958.70 551.12 956.06 554.48 C 955.61 557.09 956.94 560.31 955.07 562.48 C 954.99 564.49 954.99 566.50 954.93 568.52 C 953.28 570.06 954.23 572.54 953.92 574.52 C 952.29 576.07 953.23 578.54 952.92 580.52 C 951.07 582.04 952.91 584.95 951.08 586.48 C 950.76 588.45 951.68 590.89 950.11 592.47 C 949.83 594.13 950.51 596.19 949.10 597.48 C 949.02 598.48 948.95 599.50 948.90 600.52 C 947.14 602.07 948.81 604.85 947.16 606.47 C 946.90 607.81 947.24 609.41 946.17 610.47 C 945.91 611.81 946.24 613.40 945.17 614.47 C 944.89 615.81 945.26 617.44 944.13 618.48 C 944.06 618.99 943.93 620.01 943.86 620.52 C 942.49 621.87 943.49 624.12 942.14 625.48 C 942.07 625.99 941.93 627.01 941.87 627.53 C 940.49 628.87 941.48 631.12 940.13 632.48 C 940.07 632.99 939.93 634.01 939.86 634.52 C 939.24 635.42 938.87 636.42 938.73 637.52 C 937.66 639.00 938.38 641.09 937.14 642.48 C 937.07 642.99 936.93 644.01 936.86 644.52 C 936.24 645.42 935.86 646.43 935.73 647.54 C 935.07 649.23 934.48 650.95 933.73 652.62 C 933.19 653.89 932.79 655.23 932.16 656.48 C 932.08 656.99 931.92 658.01 931.84 658.52 C 931.19 659.75 930.79 661.09 930.28 662.39 C 929.60 663.71 929.00 665.07 928.72 666.54 C 928.22 667.81 927.80 669.12 927.29 670.39 C 926.00 672.61 925.79 675.30 924.22 677.38 C 923.28 679.41 922.69 681.58 921.79 683.64 C 921.25 684.54 920.72 685.45 920.21 686.36 C 919.30 688.41 918.72 690.59 917.75 692.63 C 917.49 693.12 916.98 694.10 916.72 694.59 C 915.85 696.16 915.15 697.83 914.25 699.39 C 913.73 700.45 913.24 701.53 912.76 702.62 C 911.95 703.87 911.34 705.24 910.75 706.61 C 909.44 708.79 908.55 711.20 907.25 713.39 C 906.64 714.75 906.02 716.11 905.25 717.40 C 905.03 717.91 904.57 718.93 904.35 719.44 C 903.47 720.82 902.50 722.15 901.70 723.58 C 901.22 724.51 900.74 725.45 900.26 726.38 C 899.48 728.67 897.84 730.48 896.72 732.59 C 895.78 734.65 894.20 736.34 893.28 738.42 C 892.36 740.12 891.11 741.64 890.27 743.41 C 885.60 750.90 880.47 758.11 875.67 765.53 C 869.09 773.73 863.39 782.68 856.35 790.44 C 855.14 793.08 852.37 794.45 851.02 796.97 C 849.66 799.52 846.86 800.90 845.65 803.56 C 842.86 807.08 839.31 809.95 836.24 813.24 C 832.94 818.46 827.91 822.23 823.76 826.74 C 820.44 829.74 817.77 833.54 813.82 835.77 C 810.56 838.54 807.96 842.06 804.56 844.65 C 800.93 846.49 799.07 850.51 795.43 852.34 C 793.92 853.17 793.06 854.81 791.57 855.66 C 788.73 856.96 787.27 859.98 784.47 861.35 C 771.91 871.02 759.15 880.49 745.59 888.72 C 742.79 890.17 740.45 892.37 737.59 893.71 C 735.86 894.63 734.35 895.88 732.59 896.72 C 731.14 897.49 729.82 898.47 728.44 899.35 C 727.93 899.58 726.91 900.03 726.40 900.26 C 725.46 900.75 724.52 901.22 723.58 901.70 C 720.76 903.68 717.66 905.16 714.61 906.75 C 713.53 907.24 712.45 907.74 711.38 908.24 C 709.44 909.36 707.41 910.32 705.38 911.24 C 704.45 911.74 703.53 912.24 702.62 912.77 C 701.53 913.23 700.45 913.73 699.38 914.24 C 698.11 915.02 696.75 915.66 695.37 916.24 C 694.45 916.73 693.53 917.25 692.64 917.79 C 690.58 918.69 688.39 919.26 686.37 920.25 C 685.88 920.51 684.90 921.02 684.41 921.28 C 682.25 922.72 679.63 923.04 677.39 924.29 C 675.73 924.95 674.02 925.50 672.38 926.20 C 670.66 927.51 668.49 927.90 666.54 928.72 C 665.07 929.01 663.71 929.61 662.39 930.28 C 661.11 930.79 659.81 931.22 658.54 931.73 C 657.48 931.91 656.47 932.24 655.52 932.72 C 654.49 932.90 653.51 933.24 652.60 933.74 C 650.95 934.49 649.23 935.07 647.54 935.73 C 646.42 935.86 645.42 936.24 644.52 936.86 C 644.01 936.93 642.99 937.07 642.48 937.14 C 641.10 938.40 639.00 937.65 637.53 938.73 C 636.42 938.86 635.42 939.24 634.52 939.86 C 634.01 939.93 632.99 940.07 632.48 940.14 C 631.11 941.47 628.87 940.50 627.52 941.86 C 627.01 941.93 625.99 942.07 625.48 942.14 C 624.11 943.47 621.88 942.51 620.52 943.86 C 620.01 943.93 618.98 944.06 618.47 944.13 C 617.12 945.51 614.84 944.46 613.52 945.89 C 612.50 945.95 611.48 946.02 610.48 946.10 C 608.92 947.87 606.06 946.11 604.53 947.90 C 603.50 947.95 602.48 948.02 601.47 948.10 C 599.93 949.88 597.06 948.10 595.52 949.90 C 594.50 949.95 593.48 950.02 592.48 950.10 C 590.89 951.68 588.45 950.76 586.48 951.08 C 585.21 952.53 583.13 951.82 581.47 952.11 C 579.89 953.67 577.44 952.76 575.47 953.08 C 573.68 955.17 570.29 952.81 568.52 954.94 C 566.22 955.30 563.36 954.15 561.52 955.93 C 559.17 956.01 556.82 955.97 554.48 956.07 C 551.35 958.17 547.06 956.41 543.48 957.07 C 539.79 959.74 534.21 956.25 530.52 958.93 C 510.51 959.04 490.49 959.05 470.48 958.93 C 466.78 956.26 461.21 959.74 457.53 957.07 C 454.17 956.92 450.82 957.06 447.48 956.93 C 445.39 954.65 441.61 957.33 439.52 955.07 C 437.17 954.98 434.82 955.01 432.48 954.93 C 430.69 952.83 427.31 955.15 425.53 953.08 C 423.84 953.00 422.15 952.98 420.48 952.92 C 419.22 951.45 417.13 952.15 415.47 951.89 C 413.64 949.89 410.35 952.10 408.52 950.10 C 407.50 950.02 406.49 949.95 405.48 949.90 C 403.93 948.10 401.06 949.88 399.53 948.10 C 398.50 948.02 397.49 947.95 396.48 947.90 C 394.92 946.14 392.14 947.81 390.53 946.17 C 389.18 945.91 387.58 946.24 386.53 945.17 C 385.17 944.89 383.55 945.27 382.52 944.13 C 382.01 944.07 380.99 943.93 380.48 943.87 C 379.12 942.50 376.88 943.48 375.52 942.14 C 375.01 942.07 373.99 941.93 373.48 941.87 C 372.12 940.49 369.87 941.49 368.52 940.13 C 368.01 940.07 366.99 939.93 366.48 939.86 C 365.57 939.24 364.57 938.86 363.47 938.73 C 361.99 937.65 359.89 938.40 358.52 937.14 C 358.01 937.07 356.99 936.93 356.48 936.86 C 355.57 936.23 354.57 935.85 353.46 935.73 C 352.18 935.22 350.88 934.79 349.61 934.28 C 348.28 933.60 346.92 933.01 345.47 932.72 C 344.51 932.24 343.51 931.91 342.47 931.73 C 341.18 931.22 339.88 930.78 338.61 930.27 C 337.28 929.60 335.92 929.00 334.46 928.72 C 332.77 928.05 331.05 927.48 329.38 926.80 C 327.69 925.48 325.53 925.12 323.61 924.29 C 321.37 923.02 318.74 922.72 316.59 921.28 C 316.10 921.03 315.12 920.51 314.63 920.25 C 312.60 919.27 310.41 918.72 308.38 917.78 C 306.85 916.81 305.16 916.16 303.61 915.26 C 301.86 914.43 300.14 913.55 298.39 912.74 C 297.11 911.96 295.75 911.33 294.39 910.75 C 293.11 909.96 291.75 909.34 290.39 908.75 C 288.83 907.83 287.16 907.15 285.61 906.26 C 284.25 905.63 282.89 905.00 281.57 904.32 C 280.17 903.46 278.83 902.52 277.42 901.69 C 276.47 901.22 275.53 900.74 274.60 900.26 C 274.09 900.03 273.07 899.57 272.57 899.34 C 270.90 898.31 269.35 897.12 267.59 896.28 C 266.16 895.48 264.84 894.51 263.42 893.71 C 260.54 892.38 258.21 890.17 255.41 888.72 C 241.84 880.49 229.10 871.01 216.53 861.35 C 213.92 860.10 212.52 857.37 210.01 856.01 C 207.62 854.80 206.38 852.20 204.00 851.00 C 201.63 849.76 200.26 847.35 198.18 845.77 C 193.57 843.18 190.75 838.44 186.56 835.35 C 184.02 834.02 182.30 831.68 180.26 829.75 C 175.78 825.21 171.16 820.79 166.76 816.18 C 163.56 810.59 157.43 807.40 154.24 801.81 C 153.06 800.27 151.33 799.23 150.34 797.56 C 148.81 794.57 145.65 792.89 144.24 789.81 C 140.11 785.87 137.14 780.95 133.63 776.48 C 125.18 765.67 117.57 754.20 110.28 742.59 C 109.35 740.87 108.11 739.35 107.28 737.59 C 106.48 736.15 105.51 734.83 104.72 733.41 C 103.87 731.64 102.67 730.09 101.65 728.44 C 101.42 727.93 100.97 726.91 100.74 726.40 C 100.25 725.46 99.77 724.52 99.31 723.58 C 98.48 722.16 97.53 720.82 96.67 719.43 C 95.89 717.81 95.16 716.16 94.25 714.61 C 93.65 713.24 93.03 711.88 92.25 710.61 C 91.65 709.24 91.02 707.88 90.28 706.59 C 90.03 706.10 89.53 705.11 89.28 704.61 C 88.67 703.24 88.02 701.89 87.25 700.61 C 86.75 699.53 86.25 698.45 85.75 697.39 C 84.82 695.84 84.19 694.14 83.22 692.63 C 82.10 690.33 81.70 687.74 80.29 685.59 C 80.03 685.10 79.51 684.12 79.25 683.63 C 78.27 681.60 77.72 679.41 76.78 677.38 C 75.51 675.67 75.10 673.54 74.29 671.61 C 73.61 670.28 73.01 668.92 72.72 667.46 C 72.08 665.75 71.48 664.03 70.73 662.38 C 70.20 661.09 69.78 659.76 69.16 658.52 C 69.08 658.01 68.92 656.99 68.84 656.48 C 68.00 654.84 67.53 653.05 66.74 651.40 C 66.25 650.47 65.91 649.49 65.73 648.47 C 65.24 647.52 64.91 646.52 64.72 645.47 C 64.26 644.51 63.92 643.51 63.72 642.48 C 62.75 640.97 63.27 639.01 62.27 637.53 C 62.13 636.42 61.75 635.42 61.14 634.52 C 61.07 634.01 60.93 632.99 60.86 632.48 C 59.52 631.11 60.49 628.87 59.13 627.53 C 59.07 627.01 58.93 625.99 58.86 625.48 C 57.53 624.10 58.48 621.88 57.14 620.52 C 57.07 620.01 56.94 618.98 56.87 618.47 C 55.47 617.12 56.54 614.84 55.11 613.52 C 55.04 612.50 54.97 611.48 54.90 610.48 C 53.12 608.92 54.88 606.07 53.10 604.52 C 53.03 603.50 52.96 602.48 52.90 601.48 C 51.12 599.92 52.88 597.06 51.10 595.52 C 51.03 594.50 50.97 593.48 50.90 592.48 C 49.32 590.89 50.23 588.45 49.92 586.48 C 48.08 584.95 49.93 582.03 48.08 580.52 C 48.01 578.83 47.99 577.15 47.92 575.48 C 45.85 573.68 48.16 570.30 46.06 568.52 C 45.68 566.23 46.86 563.36 45.06 561.53 C 44.97 558.84 45.03 556.16 44.93 553.48 C 42.37 550.43 45.64 545.56 43.07 542.53 C 42.91 538.84 43.09 535.16 42.93 531.48 C 41.52 530.39 42.12 528.50 41.97 527.02 C 42.07 508.37 41.92 489.71 42.04 471.07 C 42.26 470.68 42.71 469.91 42.93 469.52 C 43.09 465.84 42.91 462.16 43.07 458.48 C 45.64 455.43 42.36 450.55 44.94 447.52 C 45.39 444.91 44.05 441.68 45.93 439.52 C 46.02 437.17 45.98 434.82 46.07 432.48 C 47.71 430.94 46.76 428.45 47.08 426.48 C 49.14 424.67 46.86 421.33 48.91 419.53 C 48.98 418.17 49.02 416.82 49.09 415.47 C 51.14 413.67 48.87 410.35 50.90 408.52 C 50.96 407.50 51.03 406.49 51.10 405.48 C 52.89 403.93 51.12 401.07 52.90 399.52 C 52.97 398.50 53.03 397.49 53.10 396.48 C 54.88 394.92 53.12 392.07 54.90 390.52 C 54.96 389.50 55.03 388.49 55.11 387.48 C 56.52 386.15 55.49 383.87 56.86 382.52 C 56.93 382.01 57.07 380.98 57.13 380.47 C 58.52 379.13 57.50 376.87 58.86 375.52 C 58.93 375.01 59.07 373.99 59.14 373.48 C 60.42 372.11 59.66 370.00 60.73 368.53 C 60.88 367.42 61.25 366.42 61.86 365.52 C 61.93 365.01 62.07 363.99 62.14 363.47 C 63.50 362.12 62.50 359.87 63.87 358.53 C 63.94 358.02 64.07 356.99 64.14 356.48 C 64.75 355.57 65.12 354.56 65.27 353.46 C 65.92 351.76 66.51 350.04 67.27 348.38 C 67.80 347.11 68.24 345.81 68.73 344.54 C 68.93 343.48 69.26 342.48 69.72 341.52 C 69.92 340.50 70.26 339.52 70.72 338.60 C 71.40 337.28 71.98 335.91 72.29 334.46 C 73.09 332.50 73.48 330.33 74.80 328.62 C 75.48 326.97 76.02 325.26 76.71 323.61 C 77.75 321.61 78.29 319.41 79.21 317.37 C 79.73 316.45 80.26 315.54 80.79 314.64 C 81.71 312.59 82.29 310.42 83.22 308.38 C 84.19 306.86 84.82 305.15 85.75 303.61 C 86.25 302.53 86.75 301.46 87.24 300.38 C 88.04 299.12 88.65 297.75 89.26 296.39 C 90.16 294.83 90.85 293.16 91.73 291.59 C 91.97 291.09 92.46 290.08 92.70 289.58 C 92.96 289.09 93.47 288.11 93.73 287.62 C 94.23 286.53 94.75 285.46 95.26 284.39 C 95.75 283.45 96.23 282.52 96.69 281.58 C 97.51 280.15 98.48 278.82 99.35 277.44 C 99.57 276.93 100.03 275.91 100.26 275.40 C 100.75 274.47 101.23 273.52 101.69 272.58 C 102.66 270.88 103.87 269.35 104.72 267.59 C 105.63 265.86 106.89 264.36 107.72 262.59 C 108.51 261.15 109.48 259.83 110.29 258.42 C 116.17 249.04 122.27 239.74 128.84 230.83 C 134.18 224.12 138.82 216.81 144.66 210.56 C 145.86 207.91 148.64 206.53 150.00 204.00 C 151.23 201.63 153.65 200.26 155.24 198.18 C 158.15 192.96 163.86 190.04 166.77 184.81 C 172.70 178.73 178.74 172.71 184.82 166.77 C 190.04 163.86 192.96 158.14 198.18 155.23 C 200.11 153.80 201.36 151.60 203.44 150.35 C 206.42 148.81 208.11 145.65 211.19 144.23 C 215.49 139.79 220.85 136.58 225.69 132.75 C 234.90 125.49 244.73 119.06 254.59 112.72 C 257.45 111.37 259.79 109.17 262.59 107.73 C 264.35 106.88 265.87 105.63 267.60 104.72 C 269.35 103.87 270.88 102.65 272.58 101.69 C 273.52 101.23 274.46 100.75 275.40 100.26 C 275.91 100.03 276.93 99.57 277.44 99.34 C 278.83 98.47 280.17 97.53 281.57 96.67 C 283.18 95.88 284.83 95.16 286.39 94.25 C 287.46 93.75 288.54 93.25 289.62 92.76 C 290.88 91.95 292.24 91.35 293.62 90.75 C 294.88 89.96 296.24 89.35 297.61 88.75 C 299.16 87.84 300.83 87.15 302.39 86.26 C 304.41 85.30 306.47 84.39 308.38 83.22 C 310.41 82.29 312.58 81.70 314.64 80.79 C 315.54 80.26 316.45 79.73 317.37 79.21 C 319.41 78.29 321.62 77.76 323.61 76.71 C 325.53 75.86 327.69 75.52 329.38 74.20 C 331.05 73.51 332.76 72.93 334.46 72.28 C 335.92 71.98 337.28 71.38 338.61 70.72 C 339.88 70.20 341.18 69.77 342.46 69.27 C 343.51 69.08 344.51 68.74 345.47 68.27 C 346.49 68.08 347.47 67.74 348.40 67.28 C 349.72 66.60 351.08 66.02 352.54 65.72 C 353.86 65.22 355.22 64.82 356.48 64.15 C 356.99 64.08 358.01 63.93 358.53 63.86 C 359.89 62.57 362.00 63.36 363.47 62.26 C 364.57 62.12 365.57 61.75 366.48 61.14 C 366.99 61.07 368.01 60.93 368.52 60.86 C 369.88 59.51 372.12 60.49 373.48 59.14 C 373.99 59.07 375.01 58.93 375.53 58.87 C 376.87 57.49 379.12 58.51 380.47 57.13 C 380.98 57.06 382.01 56.93 382.52 56.86 C 383.87 55.49 386.15 56.53 387.48 55.11 C 388.49 55.04 389.50 54.96 390.53 54.90 C 392.06 53.10 394.93 54.90 396.47 53.10 C 397.48 53.03 398.50 52.96 399.52 52.90 C 401.07 51.13 403.92 52.87 405.48 51.10 C 406.49 51.03 407.50 50.96 408.52 50.90 C 410.35 48.90 413.63 51.09 415.47 49.11 C 417.13 48.83 419.21 49.54 420.48 48.08 C 422.45 47.76 424.92 48.70 426.48 47.08 C 428.45 46.76 430.94 47.71 432.48 46.06 C 435.09 45.61 438.31 46.94 440.48 45.07 C 442.82 44.98 445.17 45.02 447.52 44.93 C 450.57 42.38 455.43 45.63 458.48 43.07 C 462.16 42.91 465.84 43.09 469.52 42.93 M 482.32 126.44 C 394.12 130.47 307.81 167.07 243.78 227.89 C 198.13 270.64 163.63 325.18 144.36 384.67 C 127.86 435.21 122.38 489.30 128.33 542.13 C 137.10 622.31 172.74 699.29 228.35 757.73 C 278.89 811.53 345.85 849.61 417.88 865.78 C 484.07 880.84 554.36 877.38 618.74 855.84 C 664.56 840.65 707.37 816.44 744.02 785.02 C 781.88 752.71 813.09 712.69 835.38 668.20 C 863.54 612.05 877.25 548.74 874.71 485.97 C 871.91 409.08 844.53 333.35 797.55 272.42 C 753.21 214.46 691.48 170.02 622.42 146.40 C 577.56 130.90 529.73 124.12 482.32 126.44 Z" />
</g>
<g id="#515151ff">
<path fill="#515151" opacity="1.00" d=" M 396.22 165.22 C 405.80 157.81 417.88 153.82 429.98 153.94 C 475.00 153.94 520.01 153.94 565.03 153.93 C 570.73 153.88 576.48 153.87 582.07 155.15 C 597.68 158.36 611.56 168.88 618.97 182.99 C 626.24 196.57 627.21 213.32 621.58 227.67 C 614.41 246.67 595.82 260.48 575.63 262.23 C 575.62 317.49 575.63 372.75 575.63 428.01 C 575.77 438.69 574.71 449.50 577.00 460.04 C 581.06 479.95 588.46 498.99 596.32 517.67 C 601.16 528.61 605.53 539.87 612.08 549.95 C 641.77 598.57 671.47 647.18 701.17 695.80 C 705.61 703.15 710.39 710.35 713.80 718.27 C 720.78 734.00 723.71 751.97 719.66 768.87 C 716.81 781.06 710.06 792.37 700.36 800.33 C 691.29 807.87 679.70 812.27 667.92 812.70 C 557.30 813.01 446.68 813.17 336.06 813.45 C 321.23 813.52 306.34 807.79 295.85 797.21 C 285.43 786.86 279.53 772.46 278.64 757.89 C 277.30 738.84 284.04 720.12 294.49 704.43 C 325.17 653.08 355.85 601.74 386.53 550.39 C 393.40 539.49 398.68 527.70 403.99 515.99 C 410.32 501.61 416.22 486.98 420.60 471.87 C 422.84 464.00 424.64 455.91 424.60 447.68 C 425.11 416.46 424.65 385.23 424.50 354.01 C 424.49 323.41 424.52 292.81 424.49 262.21 C 410.66 260.91 397.42 254.24 388.32 243.73 C 378.56 232.72 373.67 217.58 375.19 202.94 C 376.53 188.15 384.42 174.19 396.22 165.22 M 426.43 194.61 C 420.23 195.85 415.23 201.66 415.27 208.04 C 415.05 215.02 420.95 221.39 427.87 221.96 C 434.60 222.52 441.39 221.64 448.11 222.42 C 457.81 223.90 465.18 233.23 464.82 242.97 C 465.03 287.99 464.69 333.02 465.00 378.04 C 465.07 401.68 465.39 425.33 464.89 448.97 C 464.91 467.34 459.22 485.08 453.17 502.22 C 445.58 522.86 436.50 542.95 426.28 562.42 C 392.43 619.18 358.50 675.89 324.60 732.62 C 320.85 739.04 318.57 746.46 318.81 753.95 C 319.00 759.48 320.68 765.34 324.90 769.17 C 328.46 772.35 333.42 773.18 338.05 773.15 C 445.02 772.93 552.00 772.66 658.97 772.44 C 663.51 772.27 668.49 773.20 672.59 770.73 C 678.41 767.37 681.05 760.41 681.26 753.97 C 681.54 744.62 678.05 735.59 673.36 727.66 C 639.90 672.76 606.34 617.92 572.90 563.00 C 562.90 543.28 554.29 522.85 546.99 501.98 C 541.27 484.82 535.94 467.21 535.26 449.01 C 535.24 381.01 535.26 313.01 535.25 245.01 C 534.92 235.25 541.14 225.02 551.00 222.73 C 558.55 221.20 566.37 222.94 573.95 221.69 C 580.87 220.24 586.04 213.01 584.70 205.97 C 583.66 199.09 576.93 193.93 570.06 194.26 C 523.71 194.23 477.37 194.27 431.02 194.24 C 429.48 194.27 427.94 194.31 426.43 194.61 Z" />
<path fill="#515151" opacity="1.00" d=" M 453.42 623.48 C 475.62 623.23 497.83 623.45 520.04 623.37 C 525.81 623.12 531.73 625.09 535.81 629.27 C 541.70 634.99 543.40 644.44 539.93 651.87 C 536.88 658.82 529.60 663.67 521.99 663.67 C 499.65 663.71 477.30 663.68 454.96 663.68 C 448.59 663.74 442.34 660.52 438.67 655.33 C 434.23 649.32 433.65 640.78 437.16 634.20 C 440.27 628.15 446.62 623.92 453.42 623.48 Z" />
<path fill="#515151" opacity="1.00" d=" M 399.37 699.56 C 404.16 698.37 409.15 698.93 414.04 698.81 C 421.35 698.92 428.69 698.58 436.00 698.98 C 446.36 699.72 454.85 709.65 454.07 719.99 C 453.82 730.02 445.01 738.90 434.96 739.11 C 424.64 739.25 414.31 739.22 403.98 739.13 C 394.16 739.03 385.36 730.70 384.66 720.92 C 383.54 711.45 390.15 701.91 399.37 699.56 Z" />
<path fill="#515151" opacity="1.00" d=" M 499.39 700.56 C 503.14 699.40 507.11 699.71 510.99 699.68 C 537.66 699.70 564.34 699.68 591.01 699.69 C 597.82 699.50 604.55 703.06 608.23 708.80 C 612.64 715.36 612.57 724.54 608.11 731.06 C 604.41 736.68 597.77 740.13 591.05 739.99 C 562.71 740.01 534.36 739.99 506.01 740.00 C 499.99 740.17 493.95 737.60 490.05 732.99 C 485.41 727.70 483.95 719.91 486.27 713.29 C 488.27 707.27 493.32 702.40 499.39 700.56 Z" />
</g>
</svg>
